<?xml version="1.0" standalone="no"?>
<!DOCTYPE svg PUBLIC "-//W3C//DTD SVG 20010904//EN"
 "http://www.w3.org/TR/2001/REC-SVG-20010904/DTD/svg10.dtd">
<svg version="1.0" xmlns="http://www.w3.org/2000/svg"
 width="450.000000pt" height="450.000000pt" viewBox="0 0 450.000000 450.000000"
 preserveAspectRatio="xMidYMid meet">
<metadata>
Created by potrace 1.10, written by Peter Selinger 2001-2011
</metadata>
<g transform="translate(0.000000,450.000000) scale(0.050000,-0.050000)"
fill="#000000" stroke="none">
<path d="M4447 6671 c-162 -65 -316 -149 -302 -163 5 -4 70 24 146 62 77 38
148 69 159 69 11 -1 -48 -36 -131 -78 -83 -43 -163 -92 -178 -109 -14 -18 -35
-32 -47 -32 -11 0 -5 17 14 38 19 21 25 41 14 45 -12 4 -4 42 19 95 22 48 37
91 33 95 -14 14 -275 -216 -325 -288 -55 -78 -57 -69 -19 68 6 20 -3 7 -21
-30 -17 -37 -39 -113 -50 -169 -26 -134 -29 -134 -71 -10 l-37 106 -18 -116
c-11 -73 -11 -153 2 -215 23 -116 18 -118 -94 -38 -92 68 -98 51 -28 -85 37
-74 41 -70 -88 -98 -137 -29 -165 -58 -165 -172 0 -62 -8 -86 -29 -86 -43 0
-52 27 -25 81 15 31 20 98 14 179 -11 148 -19 127 -62 -177 l-23 -167 -107
106 c-156 154 -147 114 24 -110 l151 -197 -26 -180 c-22 -157 -31 -181 -71
-197 -25 -9 -46 -30 -46 -47 0 -16 -17 -39 -38 -50 -22 -12 -43 -51 -50 -96
-24 -143 -28 -274 -11 -306 14 -28 -18 -36 -247 -67 -392 -53 -382 -46 -226
-152 102 -70 129 -97 122 -129 -5 -23 -23 -171 -41 -331 -17 -159 -37 -311
-43 -337 -11 -45 -8 -46 81 -32 l93 14 -30 -72 c-70 -168 29 -393 173 -393 96
0 27 -72 -233 -241 -250 -163 -240 -156 -227 -168 5 -6 98 39 207 99 224 124
227 125 159 24 -57 -83 -49 -93 26 -34 67 53 66 62 24 -189 -21 -120 -36 -221
-33 -224 3 -3 572 121 1265 274 692 154 1324 293 1403 310 163 35 146 8 187
314 17 132 30 175 53 175 23 0 28 -15 19 -65 -34 -199 -38 -260 -15 -246 16
10 21 0 14 -32 -19 -91 -34 -237 -25 -237 8 0 93 341 93 373 0 5 -9 4 -20 -3
-23 -14 -26 54 -8 146 16 77 81 106 251 111 255 6 420 274 306 494 l-30 59 80
0 c45 0 81 5 81 12 0 13 -286 914 -294 926 -3 4 -60 -1 -126 -12 -142 -23
-138 -26 -115 109 18 105 19 106 162 186 l143 81 -133 -13 -132 -13 16 87 c10
48 18 98 18 111 1 12 109 119 242 237 286 255 288 268 20 110 -248 -147 -239
-147 -216 -6 25 152 103 246 86 105 -10 -90 -10 -90 18 18 18 68 53 134 95
180 136 144 148 190 21 76 -66 -60 -72 -36 -35 156 17 96 28 178 24 183 -19
18 -103 -288 -98 -353 5 -53 -4 -76 -35 -95 -47 -29 -48 -52 19 350 23 142 27
205 12 205 -12 0 -110 -21 -217 -47 -107 -26 -195 -45 -195 -42 0 3 37 70 82
148 108 187 93 193 -43 18 -60 -77 -119 -154 -132 -170 -17 -21 -381 -127
-439 -127 -5 0 0 17 11 38 20 37 14 38 -129 28 -83 -7 -150 -7 -150 -2 0 6 32
79 70 162 72 157 81 183 54 167 -13 -9 -411 -93 -437 -93 -4 0 10 36 33 79 63
125 60 126 -173 32z m63 -123 c-86 -67 -124 -77 -72 -21 27 29 63 53 80 52 26
0 24 -6 -8 -31z m-555 -93 c-92 -114 -136 -202 -154 -313 -13 -85 -16 -88 -30
-38 -23 85 172 436 243 436 6 0 -20 -38 -59 -85z m705 -28 c-61 -39 -153 -113
-205 -164 -52 -50 -95 -82 -95 -70 0 46 166 206 264 255 148 74 164 64 36 -21z
m-538 -142 c-91 -150 -102 -214 -20 -117 61 73 225 192 263 192 9 0 -10 -34
-43 -75 -33 -41 -79 -118 -102 -170 -23 -52 -46 -95 -50 -95 -15 0 47 182 73
214 24 29 22 30 -15 10 -64 -34 -147 -154 -186 -269 l-35 -104 -14 85 c-21
131 22 261 123 369 71 76 72 69 6 -40z m1509 36 c-39 -74 -39 -88 0 -74 17 7
-4 -28 -45 -78 -42 -50 -79 -81 -82 -70 -4 11 -29 5 -59 -14 -66 -43 -54 -22
92 161 117 146 140 166 94 75z m391 33 c53 -40 -13 -480 -78 -525 -44 -31 -45
-31 -35 14 17 72 71 423 71 459 0 30 -11 30 -129 -2 l-129 -34 34 46 c48 65
203 90 266 42z m-539 -108 c-16 -29 -423 -156 -423 -132 0 39 74 106 117 107
29 0 103 13 163 28 153 38 166 38 143 -3z m-485 -14 c-40 -36 -223 -112 -198
-82 32 38 131 88 178 89 16 1 25 -2 20 -7z m902 -93 c-12 -93 -26 -115 -172
-263 -154 -157 -155 -160 -48 -80 60 45 113 78 117 73 21 -21 -90 -226 -155
-285 l-72 -66 63 31 64 30 -66 -150 c-116 -269 -202 -297 -293 -96 -45 98 -66
109 -248 125 l-140 12 -6 70 -7 70 42 -45 c24 -25 45 -45 47 -45 2 0 33 -8 69
-19 79 -22 82 -4 12 67 -69 69 -57 76 68 40 135 -40 317 -199 280 -245 -22
-26 -19 -26 20 -6 58 31 57 37 -15 106 -33 31 -78 97 -101 145 -41 88 -86 112
-205 112 -23 0 -62 19 -87 43 -31 29 -56 37 -81 26 -34 -14 -33 -16 4 -25 51
-12 145 -84 108 -83 -16 0 -45 13 -66 29 -21 16 -45 24 -54 19 -22 -14 -46 72
-25 90 9 9 69 57 133 108 l116 93 -91 0 c-50 0 -91 9 -91 20 0 11 21 20 46 20
26 0 111 17 190 38 162 42 161 43 97 -44 -81 -110 -88 -128 -32 -89 138 98
152 87 58 -44 -55 -76 -65 -81 -87 -51 -23 31 -26 31 -52 0 -25 -30 -24 -37 3
-57 17 -13 34 -34 39 -48 4 -14 47 32 94 102 169 248 322 363 495 371 39 2 41
-6 29 -99z m-1941 -286 c30 -84 7 -93 -27 -11 -38 91 -60 282 -40 341 12 35
20 8 32 -112 8 -87 24 -185 35 -218z m699 341 c-4 -3 -42 -31 -83 -61 -41 -30
-84 -50 -94 -44 -10 7 -25 1 -33 -12 -9 -14 -6 -18 9 -9 45 28 21 -1 -81 -99
-101 -96 -100 -78 3 39 l51 59 -75 -56 c-41 -31 -102 -92 -135 -137 -64 -88
-78 -86 -32 3 47 90 205 222 338 282 100 45 175 65 132 35z m-919 -314 c25
-49 60 -107 78 -128 32 -36 31 -37 -13 -14 -25 14 -56 46 -68 72 -11 26 -47
58 -79 71 -32 13 -63 33 -70 44 -6 10 7 9 29 -3 63 -34 67 -29 56 73 -8 69 -7
79 5 35 9 -33 37 -100 62 -150z m860 88 c-53 -56 -60 -70 -29 -61 22 6 79 21
126 33 48 12 102 28 120 34 66 25 -42 -76 -126 -117 l-80 -39 60 51 60 52
-118 -41 c-148 -50 -167 -50 -122 0 60 67 3 45 -91 -35 -72 -60 -83 -65 -58
-25 33 52 266 220 305 220 12 0 -9 -33 -47 -72z m-738 -139 c25 -27 36 -49 25
-49 -25 0 -146 132 -146 159 0 10 -5 34 -12 54 -6 21 11 3 38 -39 26 -41 69
-98 95 -125z m1985 -33 l-13 -105 88 70 88 69 -43 -60 c-66 -93 -254 -266
-238 -220 8 22 38 110 66 195 60 183 68 190 52 51z m-2112 -79 c17 -5 12 -27
-17 -73 -23 -36 -46 -62 -51 -57 -5 5 5 31 22 58 30 45 29 51 -20 97 -28 26
-60 66 -71 88 -10 22 11 7 47 -33 36 -40 77 -76 90 -80z m-135 54 c20 -24 15
-32 -32 -42 -181 -41 -175 -37 -196 -126 -17 -68 -26 -80 -46 -60 -67 67 2
190 127 229 106 33 119 32 147 -1z m1061 -23 c-58 -31 -72 -45 -40 -39 28 6
12 -7 -35 -28 -121 -56 -105 -63 39 -20 160 49 167 37 28 -42 -62 -34 -107
-71 -101 -81 6 -10 7 -18 2 -18 -5 0 -24 -5 -41 -12 -25 -10 -32 2 -32 55 0
37 -13 92 -29 122 -31 59 -13 85 46 66 19 -6 71 2 114 17 123 45 148 35 49
-20z m-237 -86 c13 -36 7 -47 -38 -63 -30 -11 -73 -29 -95 -39 -45 -23 -49
-23 94 11 46 11 53 7 51 -29 -5 -58 -146 -102 -324 -102 -199 1 -224 11 -245
97 -35 143 -26 150 181 138 101 -6 165 -4 143 5 -33 13 -28 17 30 24 130 16
186 5 203 -42z m-774 -51 c-16 -39 -28 -95 -27 -125 0 -31 6 -43 12 -26 32 88
146 168 146 102 0 -20 32 -107 71 -193 57 -125 67 -165 52 -208 -20 -59 10
-121 60 -121 71 0 94 -71 34 -106 -31 -17 -57 -48 -57 -68 0 -35 -88 -92 -109
-70 -6 6 -11 54 -11 107 0 77 -6 93 -30 84 -41 -16 -38 29 8 119 45 89 10 104
-67 27 -75 -75 -85 -196 -25 -317 l51 -102 -51 -80 c-28 -44 -52 -91 -54 -105
-7 -49 -54 -85 -121 -93 l-68 -8 31 59 c83 160 31 388 -73 324 -78 -49 -94 63
-52 362 l41 289 50 -12 50 -11 -45 36 c-77 61 -44 158 62 182 152 34 155 33
122 -46z m2299 -29 c-9 -54 -28 -91 -54 -105 -51 -28 -37 104 18 166 46 49 52
39 36 -61z m-1079 47 c74 -75 -26 -349 -128 -349 -18 0 -47 -39 -68 -90 -41
-101 -178 -233 -306 -295 l-83 -41 -97 71 c-145 107 -346 423 -298 470 4 5 14
-12 21 -36 11 -35 18 -38 32 -17 14 22 27 17 63 -25 47 -55 115 -89 115 -57 0
10 -25 41 -55 69 l-55 51 120 0 c66 0 143 6 170 12 39 8 32 -1 -30 -41 -44
-28 -91 -47 -105 -42 -32 12 -32 -14 -1 -45 40 -40 86 -27 133 36 40 55 48 58
75 30 49 -48 108 -19 108 54 0 20 9 36 20 36 31 0 23 -74 -11 -109 -18 -17
-51 -31 -75 -31 -24 0 -57 -9 -74 -20 -21 -14 -9 -16 40 -7 39 7 75 12 80 12
97 -2 100 -5 101 -80 1 -57 5 -65 17 -35 35 91 5 194 -45 152 -25 -20 -25 -13
-3 52 23 65 22 78 -3 87 -20 7 -8 21 40 43 79 38 93 31 93 -47 0 -88 33 -67
59 38 35 139 99 204 150 154z m937 -160 c-7 -48 -30 -73 -110 -117 -116 -66
-111 -41 22 98 98 103 101 104 88 19z m-2459 11 c28 -26 -24 -43 -65 -21 -58
31 -62 28 -62 -53 0 -43 -7 -66 -17 -55 -10 10 -13 53 -8 95 10 76 88 94 152
34z m2603 -92 c-66 -60 -273 -211 -460 -335 -361 -239 -497 -346 -479 -375 6
-10 -13 -27 -43 -39 -313 -119 331 431 911 778 207 124 230 114 71 -29z
m-2610 20 c0 -21 -61 -424 -70 -463 -24 -103 -62 -47 -48 70 8 63 15 136 16
161 1 29 10 41 24 33 16 -10 19 20 8 107 -13 116 -12 121 28 110 23 -6 42 -14
42 -18z m1880 -15 c35 -17 48 -39 45 -70 -3 -25 3 -41 12 -35 21 13 63 -74 63
-129 0 -42 -58 -84 -236 -172 -114 -57 -310 -242 -349 -332 -14 -30 -41 -55
-60 -55 -31 0 -28 16 27 125 84 166 26 114 -72 -64 -70 -130 -110 -173 -110
-120 0 80 125 249 334 450 261 251 282 303 141 338 -92 22 -100 54 -10 38 219
-38 222 -131 8 -331 -94 -88 -186 -184 -204 -213 -21 -34 -5 -24 46 30 44 45
148 133 232 195 217 161 214 315 -8 344 -55 7 -106 22 -112 34 -17 26 185 0
253 -33z m-184 -170 c8 -50 -16 -52 -116 -12 l-70 29 74 -6 c71 -6 73 -4 42
31 -32 35 -31 36 15 19 27 -10 52 -38 55 -61z m-189 -70 l40 -98 -80 -66 c-44
-37 -119 -117 -166 -178 -118 -152 -134 -139 -42 34 42 80 87 195 100 255 13
61 28 122 32 136 18 54 77 11 116 -83z m1046 62 c-7 -25 -13 -61 -13 -80 0
-22 -15 -35 -40 -35 -43 0 -40 78 5 135 32 41 61 29 48 -20z m-133 -93 c0 -29
-45 -57 -162 -101 -130 -49 -352 -178 -474 -276 -47 -38 -91 -65 -96 -60 -21
21 254 214 510 358 170 95 222 114 222 79z m-1953 -340 c29 -71 66 -150 84
-176 17 -26 26 -54 21 -63 -6 -9 3 -16 19 -16 23 0 29 34 29 165 0 126 8 173
32 198 45 44 47 36 24 -90 -11 -60 -15 -153 -9 -206 8 -71 5 -94 -13 -88 -13
5 -40 0 -59 -9 -41 -21 -235 362 -235 464 0 109 29 135 42 39 7 -49 36 -148
65 -218z m833 204 c-37 -115 -119 -248 -198 -323 l-72 -66 75 35 c80 38 103
33 84 -17 -13 -35 -49 -46 -204 -66 -101 -14 -105 -12 -104 33 4 112 27 132
86 73 29 -29 53 -45 53 -34 0 10 -18 37 -40 59 -50 50 -50 65 -2 108 36 33 39
32 60 -22 l22 -56 -11 57 c-7 37 -3 52 11 43 23 -14 159 122 215 214 44 73 55
56 25 -38z m1240 34 c-27 -22 -62 -35 -76 -30 -14 5 -21 1 -15 -9 7 -10 -8
-32 -32 -49 -23 -16 -57 -52 -75 -79 l-32 -49 -70 36 -70 37 60 23 c33 14 92
36 130 51 39 14 57 27 40 27 -16 1 -84 -21 -150 -48 -132 -55 -150 -59 -150
-32 0 31 283 125 480 159 6 1 -12 -16 -40 -37z m-880 -230 c-197 -198 -298
-258 -168 -99 62 76 317 288 348 289 5 0 -76 -85 -180 -190z m-895 85 c-26
-113 -15 -205 31 -269 57 -80 56 -86 -16 -86 -103 0 -120 138 -48 385 19 63
47 37 33 -30z m1726 -66 c-10 -54 -22 -69 -57 -69 -43 1 -43 1 6 40 41 32 43
39 15 40 -44 0 -44 17 -1 65 42 46 55 20 37 -76z m-2575 51 c39 0 44 -7 33
-45 -12 -42 -11 -43 15 -8 27 35 29 34 51 -15 41 -89 11 -120 -59 -62 -32 28
-71 50 -86 50 -15 0 -41 5 -58 12 -18 7 -32 3 -32 -9 0 -12 32 -27 70 -34 70
-13 84 -36 52 -86 -13 -20 -33 -22 -89 -6 -105 29 -110 -9 -6 -41 120 -36 106
-124 -16 -96 -103 23 -87 -11 18 -38 98 -24 125 -51 94 -89 -22 -26 -203 -28
-245 -2 -29 18 -9 150 26 172 19 12 16 16 -11 17 -22 0 -32 10 -25 25 7 14 18
41 24 60 7 19 27 36 45 37 28 2 28 4 -2 12 -56 15 1 103 70 108 20 1 19 3 0
11 -42 17 -4 51 42 39 24 -6 64 -12 89 -12z m935 -128 c-13 -54 -31 -89 -38
-77 -12 20 44 195 58 181 3 -3 -6 -50 -20 -104z m-698 18 c23 -61 -10 -136
-45 -101 -37 37 -61 41 -33 6 31 -39 23 -97 -13 -91 -36 7 -39 61 -7 151 24
68 78 87 98 35z m1676 -52 c-33 -34 -86 -75 -119 -91 -48 -23 -40 -10 40 62
114 102 168 123 79 29z m121 11 c-61 -50 -90 -61 -90 -34 0 19 102 84 130 84
11 0 -7 -23 -40 -50z m300 -9 c53 -59 14 -90 -62 -51 -32 17 -80 31 -107 31
-87 0 1 50 101 58 17 1 48 -16 68 -38z m-2269 -52 c26 -69 4 -99 -42 -57 -30
27 -32 40 -13 71 30 48 31 48 55 -14z m439 -93 c-1 -62 -6 -77 -20 -55 -17 26
-19 25 -20 -5 0 -19 -9 -35 -20 -35 -11 0 -20 18 -20 40 0 22 9 40 20 40 10 0
25 23 32 50 18 73 28 61 28 -35z m2359 -257 c57 -177 101 -325 97 -328 -39
-37 -185 -15 -196 30 -13 56 -6 55 -175 34 -79 -10 -125 -25 -125 -41 0 -55
-54 -93 -148 -106 l-98 -13 167 325 c157 305 165 327 131 352 -33 24 -30 27
31 37 89 15 162 26 189 29 13 2 70 -142 127 -319z m-2653 197 c-38 -65 -146
-105 -146 -55 0 46 42 100 78 100 21 0 49 14 64 32 43 52 46 -5 4 -77z m-166
14 c0 -35 -39 -58 -61 -36 -31 31 1 112 33 85 16 -13 28 -35 28 -49z m2203
-10 c49 -27 47 -37 -24 -115 -51 -56 -65 -62 -102 -43 -170 92 -387 -208 -227
-313 69 -45 190 -23 190 34 0 36 -9 39 -62 28 -62 -14 -62 -14 -48 53 19 90
20 91 172 106 l131 13 -24 -155 c-51 -324 -470 -406 -581 -115 -118 310 282
663 575 507z m-635 -223 c-13 -102 -30 -255 -38 -339 l-13 -153 -81 -8 -81 -8
-113 169 -112 169 -15 -168 c-20 -222 -11 -210 -177 -225 -79 -8 -166 -19
-191 -26 -40 -10 -49 -2 -60 51 -9 46 -21 61 -45 54 -17 -5 -78 -15 -135 -22
-90 -12 -107 -21 -127 -71 -22 -52 -178 -109 -209 -76 -4 4 64 149 150 323
124 248 152 318 128 327 -58 22 -27 41 103 60 124 19 133 17 147 -22 9 -22 55
-160 103 -306 48 -146 93 -265 100 -265 7 0 24 101 37 225 13 124 28 252 33
285 9 50 1 66 -45 93 l-55 33 99 14 c54 7 114 17 132 22 24 7 67 -39 150 -156
l117 -166 17 170 c20 198 12 183 108 200 103 18 101 24 73 -184z m-1714 10
c-21 -46 -24 -47 -48 -14 -37 51 -33 63 22 63 45 0 47 -4 26 -49z m357 -51
c-6 -25 -25 -171 -42 -325 -36 -313 -31 -301 -134 -316 -87 -13 -88 -8 -54
203 28 171 17 171 -75 -1 -106 -196 -172 -207 -229 -37 -56 165 -70 160 -82
-29 -12 -200 -7 -190 -116 -205 l-85 -11 12 78 c58 377 63 512 18 548 -43 35
-42 36 51 49 52 7 118 17 147 23 48 9 55 0 107 -136 31 -80 62 -152 69 -160 6
-7 57 67 112 164 104 184 110 189 255 197 48 3 54 -3 46 -42z m2629 -495 c84
-84 54 -155 -70 -171 -60 -7 -110 -23 -110 -34 0 -12 28 -16 69 -9 103 17 132
-31 43 -74 -127 -60 -212 -17 -212 106 0 163 181 281 280 182z m-317 -22 c54
-29 -6 -106 -68 -86 -76 24 -160 -116 -87 -144 16 -6 47 -2 68 10 54 29 102
-22 64 -67 -68 -83 -228 -52 -250 48 -33 153 144 308 273 239z m-274 -63 c-8
-25 -15 -45 -16 -46 -62 -26 -113 -79 -113 -118 0 -85 -36 -151 -82 -151 -38
0 -41 8 -30 64 7 35 18 112 25 170 13 106 13 107 79 102 37 -2 73 2 81 10 33
33 70 13 56 -31z m-300 -26 c66 -67 40 -169 -44 -170 -100 -2 -169 -29 -123
-48 18 -7 59 -11 90 -7 78 8 77 -44 0 -81 -125 -60 -229 42 -190 184 34 122
193 195 267 122z m-313 -99 c10 -136 -21 -239 -73 -247 -44 -6 -45 -3 -31 117
12 114 11 123 -23 117 -41 -8 -64 -69 -67 -182 -2 -69 -7 -75 -59 -75 l-58 0
19 103 c13 72 12 109 -4 125 -30 29 -80 -37 -80 -107 -1 -100 -22 -141 -73
-141 -44 0 -48 6 -37 65 7 36 19 110 26 165 16 110 8 106 227 116 41 2 81 11
90 20 50 50 137 4 143 -76z m-517 2 c14 -18 19 -59 11 -105 -6 -43 -16 -106
-22 -142 -8 -54 -19 -65 -61 -65 -43 0 -50 7 -41 45 32 140 35 172 14 185 -40
25 -77 -32 -91 -141 -12 -98 -18 -109 -62 -109 -48 0 -49 2 -35 122 12 112 11
121 -23 115 -41 -8 -64 -69 -67 -182 -2 -69 -7 -75 -60 -75 -56 0 -57 2 -42
75 9 41 22 118 29 171 13 90 18 96 67 92 30 -2 71 3 92 12 21 9 52 7 71 -5 24
-15 43 -13 71 7 49 36 119 36 149 0z m-537 -74 c97 -97 -4 -301 -152 -306
-170 -5 -190 196 -31 303 83 56 129 57 183 3z m-319 -20 c54 -29 -6 -106 -68
-86 -46 14 -115 -43 -115 -96 0 -47 54 -69 101 -40 27 17 41 15 61 -8 64 -77
-146 -144 -220 -70 -129 129 78 388 241 300z m-500 -71 c102 -92 31 -187 -140
-187 -47 0 -49 -3 -20 -32 26 -26 41 -27 75 -9 47 25 82 13 82 -27 0 -101
-219 -90 -258 13 -58 151 150 343 261 242z m197 -107 c0 -22 -13 -40 -28 -40
-16 0 -43 -5 -60 -12 -24 -9 -32 1 -32 40 0 44 9 52 60 52 47 0 60 -9 60 -40z
m2326 -71 c-28 -388 42 -347 -976 -567 -253 -55 -626 -137 -830 -183 -485
-109 -492 -109 -342 -37 76 36 253 89 430 128 166 37 594 131 952 210 357 79
651 145 654 147 2 2 15 88 28 190 19 152 29 184 56 178 22 -4 31 -25 28 -66z
m-126 8 c0 -13 -10 -78 -21 -145 l-21 -122 -264 -58 c-145 -31 -276 -62 -292
-68 -27 -10 -24 72 10 236 12 60 113 110 258 127 55 7 119 17 142 24 32 9 45
2 54 -31 7 -26 21 -38 34 -30 16 10 16 21 0 40 -22 26 -18 29 85 47 8 2 15 -8
15 -20z m-622 -129 c21 -20 -25 -30 -184 -42 -124 -8 -168 -19 -161 -36 7 -18
31 -21 83 -10 215 45 244 44 244 -8 0 -64 -20 -114 -41 -101 -9 5 -55 3 -103
-4 -78 -13 -81 -16 -36 -30 31 -10 9 -13 -60 -6 -78 7 -101 4 -80 -10 22 -15
-15 -22 -130 -25 -159 -4 -159 -4 -32 -11 117 -6 322 16 437 47 52 15 62 -21
11 -41 -66 -25 -341 -36 -552 -22 l-213 15 33 44 c30 39 45 42 135 29 154 -22
247 -20 211 3 -16 11 -91 20 -165 20 -109 0 -135 6 -135 31 0 26 15 29 95 15
137 -23 506 -16 565 10 47 22 45 23 -20 13 -278 -43 -620 -10 -620 59 0 59
181 84 372 50 70 -12 138 -17 152 -11 14 5 -1 11 -34 13 -33 2 -82 12 -110 22
-31 11 21 13 140 6 105 -7 194 -15 198 -20z m-738 -39 c0 -17 -9 -26 -21 -19
-13 9 -16 -6 -8 -43 8 -39 6 -48 -7 -30 -14 20 -22 15 -32 -25 -10 -42 -26
-53 -77 -55 l-65 -3 59 -9 c41 -6 67 3 85 27 14 20 26 26 26 15 0 -90 -146
-97 -305 -14 -87 44 -76 118 20 134 42 7 78 4 82 -7 3 -11 19 -7 35 9 30 30
84 21 115 -18 10 -13 13 -8 6 13 -7 23 3 36 33 42 24 5 46 10 49 11 3 2 5 -11
5 -28z m-835 -29 c36 -22 91 -40 122 -40 56 0 57 -1 25 -45 -18 -25 -41 -65
-52 -90 -10 -25 -28 -45 -40 -45 -11 0 -20 -18 -20 -41 0 -22 -13 -45 -29 -51
-22 -9 -207 -223 -265 -306 -23 -34 -25 39 -5 177 l24 163 107 61 c116 65 174
122 70 68 -144 -74 -162 -76 -162 -12 0 42 22 79 75 130 89 84 70 80 150 31z
m394 0 c9 0 16 -22 16 -49 0 -47 -71 -35 -134 23 -17 15 48 46 76 36 14 -6 33
-10 42 -10z m-139 -70 c18 -21 18 -30 2 -30 -12 0 -39 -28 -60 -62 -50 -81
-72 -41 -29 51 38 79 51 85 87 41z m-539 -55 c-1 -8 -1 -41 -1 -73 0 -35 -13
-63 -33 -70 -51 -20 -52 -3 -4 78 l44 75 -46 -15 c-33 -10 -42 -8 -32 9 16 25
74 21 72 -4z m783 -113 c63 -53 -32 -67 -124 -19 -152 80 -108 19 98 -137 5
-3 3 -12 -5 -19 -7 -8 -48 15 -92 50 -104 83 -120 80 -42 -9 35 -40 60 -76 55
-81 -15 -14 -202 74 -249 118 -25 23 -45 32 -45 19 0 -12 -38 -59 -85 -103
-47 -44 -73 -80 -57 -80 15 -1 57 31 94 70 l67 70 100 -51 c128 -65 134 -58
-94 -108 -107 -23 -220 -50 -250 -60 -81 -27 -69 -2 75 154 72 77 130 149 130
160 0 11 14 25 30 31 18 7 30 0 30 -18 0 -50 35 -32 102 50 l63 79 93 -52 c50
-29 98 -58 106 -64z m136 -65 c0 -9 -27 -17 -60 -17 -55 0 -80 33 -48 65 15
16 108 -26 108 -48z m396 23 c83 0 66 -29 -28 -46 -36 -7 -72 -2 -85 11 -33
33 -28 61 9 47 17 -7 64 -12 104 -12z m-1342 -95 c-25 -127 -38 -305 -22 -305
10 0 89 18 176 40 222 56 229 48 25 -32 -255 -101 -301 -73 -268 162 11 77 29
151 40 165 35 43 60 27 49 -30z"/>
<path d="M5571 5902 c-178 -214 -241 -311 -152 -232 70 62 375 400 344 381
-21 -12 -24 -6 -14 26 20 64 16 59 -178 -175z"/>
<path d="M5514 5584 c-41 -42 -69 -82 -62 -89 11 -11 39 18 126 130 46 59 14
39 -64 -41z"/>
<path d="M4125 5601 c-46 -7 -87 -18 -91 -22 -3 -5 -21 -33 -39 -61 l-32 -53
93 3 c97 2 144 72 59 88 -21 4 -35 -5 -35 -25 0 -17 10 -31 21 -31 12 0 16 9
9 20 -7 11 -3 20 9 20 11 0 21 -14 21 -31 0 -22 -15 -30 -45 -25 -76 10 -60
86 19 86 35 0 75 11 89 25 14 14 21 24 16 22 -5 -1 -47 -8 -94 -16z"/>
<path d="M3545 5421 c18 -25 27 -58 21 -74 -6 -15 1 -41 14 -57 38 -46 -1 -36
-59 15 -28 24 -15 6 28 -40 77 -82 106 -106 81 -65 -7 11 2 20 20 20 18 0 27
9 20 20 -20 32 13 23 58 -15 22 -19 -7 21 -66 90 -109 129 -174 187 -117 106z"/>
<path d="M3500 5230 c21 -25 18 -30 -13 -31 -29 0 -22 -13 33 -59 39 -32 79
-58 90 -58 11 1 9 6 -5 11 -14 6 -25 19 -25 30 0 11 11 13 25 5 14 -8 -6 19
-44 59 -68 72 -109 101 -61 43z"/>
<path d="M3477 5015 c61 -67 132 -89 101 -31 -12 22 -27 34 -33 28 -7 -7 -35
3 -63 21 l-52 33 47 -51z"/>
<path d="M4769 5538 c-18 -34 -27 -75 -20 -92 6 -17 1 -43 -11 -59 -18 -21
-14 -27 18 -27 23 0 47 9 54 20 7 11 -1 15 -16 9 -22 -9 -26 1 -19 40 8 41 15
47 37 29 21 -17 28 -17 28 0 0 13 -13 28 -30 35 -16 6 -30 20 -30 31 0 11 15
15 33 8 27 -11 28 -8 9 16 -19 23 -17 31 12 38 32 8 32 10 2 12 -20 1 -49 -24
-67 -60z"/>
<path d="M4101 5135 c-13 -33 -9 -52 15 -71 40 -31 87 -24 100 14 7 21 -5 25
-45 17 -49 -9 -54 -5 -46 37 12 61 -1 62 -24 3z"/>
<path d="M4440 5113 c0 -29 -121 -84 -220 -100 -40 -6 -37 -8 15 -10 113 -5
283 91 225 127 -11 7 -20 -1 -20 -17z"/>
<path d="M5863 4291 c-50 -112 -48 -120 36 -101 54 12 60 19 48 67 -33 135
-39 137 -84 34z"/>
<path d="M3825 4017 c-41 -93 -33 -108 47 -88 45 11 49 20 37 77 -21 102 -43
105 -84 11z"/>
<path d="M5980 3650 c-21 -26 -16 -30 38 -30 42 0 62 10 62 30 0 17 -17 30
-38 30 -20 0 -48 -13 -62 -30z"/>
<path d="M5107 3550 c-20 -15 -31 -32 -24 -39 16 -17 117 9 117 29 0 31 -57
37 -93 10z"/>
<path d="M3711 3354 c-37 -56 -22 -114 29 -114 48 0 84 49 77 104 -9 63 -68
69 -106 10z"/>
<path d="M2914 3288 c-8 -8 -14 -23 -14 -33 0 -24 100 -10 106 15 5 24 -71 38
-92 18z"/>
<path d="M5065 3055 c5 -14 20 -25 33 -25 14 0 39 -22 55 -50 l29 -50 -10 60
c-10 55 -9 57 12 15 12 -25 30 -45 40 -45 9 0 5 24 -10 53 -30 56 -167 95
-149 42z"/>
<path d="M4295 2966 c36 -5 90 -5 120 0 30 4 1 8 -65 8 -66 0 -91 -4 -55 -8z"/>
<path d="M3857 2929 c78 -36 126 -32 138 11 7 25 5 25 -11 2 -19 -26 -39 -25
-157 8 -20 6 -7 -4 30 -21z"/>
<path d="M3052 2588 c-22 -56 -14 -70 27 -48 23 12 35 33 28 50 -15 39 -40 38
-55 -2z"/>
<path d="M5227 6669 c-18 -47 21 -77 52 -41 25 31 14 72 -21 72 -11 0 -25 -14
-31 -31z"/>
<path d="M5291 6387 c-16 -43 21 -83 50 -54 21 21 6 87 -21 87 -9 0 -21 -15
-29 -33z"/>
<path d="M2871 5365 c135 -252 127 -241 147 -208 12 19 28 8 59 -41 65 -101
49 -42 -27 104 -40 77 -68 114 -69 90 -1 -25 -37 16 -100 115 -140 218 -144
193 -10 -60z"/>
<path d="M2770 5200 c-17 -27 6 -60 41 -60 16 0 29 18 29 40 0 41 -48 55 -70
20z"/>
<path d="M6370 5069 c-235 -78 -238 -78 -222 -37 7 17 -25 2 -70 -35 -45 -37
-102 -83 -125 -102 -28 -22 -33 -34 -16 -35 27 0 684 254 701 271 24 24 -88
-2 -268 -62z"/>
<path d="M2660 4540 c0 -22 13 -40 30 -40 17 0 30 18 30 40 0 22 -13 40 -30
40 -17 0 -30 -18 -30 -40z"/>
<path d="M2560 2800 c0 -30 10 -41 35 -36 19 4 35 20 35 36 0 16 -16 32 -35
36 -25 5 -35 -6 -35 -36z"/>
<path d="M5438 2671 c-5 -4 -71 -12 -148 -18 -130 -9 -741 -149 -724 -166 10
-10 861 149 918 172 44 17 44 19 4 20 -23 0 -45 -3 -50 -8z"/>
<path d="M5327 2509 c-15 -39 3 -57 42 -42 17 7 25 25 19 42 -16 40 -46 40
-61 0z"/>
</g>
</svg>
